<?xml version="1.0" encoding="UTF-8"?>
<svg id="Layer_2" data-name="Layer 2" xmlns="http://www.w3.org/2000/svg" viewBox="0 0 144.96 144.8">
  <defs>
    <style>
      .cls-1 {
        fill: #333;
        stroke: #333;
        stroke-miterlimit: 10;
      }
    </style>
  </defs>
  <g id="Layer_1-2" data-name="Layer 1">
    <g>
      <path class="cls-1" d="M74.4,101.29h0c-4.02,3.01-10.49,3.2-14.47.43L7.2,64.92c-9-6.28-8.92-16.9.17-23.71L57.79,3.41c4.89-3.66,12.77-3.9,17.61-.52h0c4.12,2.88,4.09,7.74-.08,10.87L24.83,51.6c-.87.65-.88,1.67-.02,2.27l49.68,34.67c4.84,3.38,4.8,9.08-.09,12.75Z"/>
      <path class="cls-1" d="M69.79,142.34h0c3.97,2.78,10.45,2.59,14.47-.42l53.32-39.92c9.1-6.81,9.19-17.43.19-23.71l-49.87-34.85c-4.84-3.38-12.72-3.15-17.61.51h0c-4.17,3.12-4.21,7.99-.09,10.87l49.94,34.9c.86.6.85,1.62-.02,2.27l-50.23,37.6c-4.89,3.66-4.94,9.37-.1,12.75Z"/>
    </g>
  </g>
</svg>