<?xml version="1.0" encoding="UTF-8"?>
<svg id="Layer_2" data-name="Layer 2" xmlns="http://www.w3.org/2000/svg" viewBox="0 0 302.21 170.8">
  <defs>
    <style>
      .cls-1 {
        fill: #333;
        stroke: #333;
      }

      .cls-1, .cls-2, .cls-3 {
        stroke-miterlimit: 10;
      }

      .cls-2 {
        fill: #231f20;
        stroke: #231f20;
        stroke-width: .3px;
      }

      .cls-3 {
        fill: #0156ef;
        stroke: #0156ef;
        stroke-width: 6px;
      }
    </style>
  </defs>
  <g id="Layer_1-2" data-name="Layer 1">
    <g>
      <path class="cls-3" d="M39.9,19.8c-3.13,3.07-4.7,8.27-4.7,15.6v18h25c0,3.33-1.17,6.2-3.5,8.6-2.33,2.4-5.23,3.6-8.7,3.6h-12.8v83.2h-14v-83.2H3v-12.2h18.2v-17.6c0-10.67,2.67-18.8,8-24.4,5.33-5.6,12.4-8.4,21.2-8.4,3.73,0,7.27.53,10.6,1.6v11.8c-2.53-.8-5.87-1.2-10-1.2s-7.97,1.53-11.1,4.6Z"/>
      <path class="cls-3" d="M96.6,53.4v81.2c0,3.87-1.37,7.2-4.1,10-2.73,2.8-6.03,4.2-9.9,4.2V53.4h14Z"/>
      <path class="cls-3" d="M181.7,145.2c-5.8-2.4-10.9-5.8-15.3-10.2l-33.8-33.8h-.4v47.6h-14V3.2c3.87,0,7.17,1.37,9.9,4.1,2.73,2.73,4.1,6.03,4.1,9.9v75l45.2-38.8h20l-50.2,43,52.4,52.4c-6.13,0-12.1-1.2-17.9-3.6Z"/>
      <path class="cls-3" d="M298.3,80.1c.47,2.97.7,5.48.7,7.55v59.6c-3.73,0-6.93-1.29-9.6-3.87-2.67-2.58-4-5.68-4-9.29v-3.1c-7.87,11.87-18.6,17.8-32.2,17.8-9.6,0-17.33-2.55-23.2-7.64-5.87-5.09-8.8-11.58-8.8-19.45v-1.16c0-9.16,3.8-15.87,11.4-20.12,7.6-4.26,16.33-6.39,26.2-6.39h14c0,.65-.23,1.81-.7,3.48-.47,1.68-1.53,3.36-3.2,5.03-1.67,1.68-4.04,2.52-7.1,2.52h-3.2c-6.27,0-11.73,1.19-16.4,3.58-4.67,2.39-7,6.36-7,11.9,0,5.03,1.93,9,5.8,11.9,3.87,2.9,8.73,4.35,14.6,4.35,8.53,0,15.63-2.64,21.3-7.93,5.67-5.29,8.5-12.12,8.5-20.51v-20.51c0-7.48-2.07-13.09-6.2-16.84-4.13-3.74-10.2-5.61-18.2-5.61-6.27,0-11.37,1.39-15.3,4.16-3.93,2.78-6.77,6.29-8.5,10.55l-13.2-4.06c2.4-5.81,6.73-11.03,13-15.67,6.27-4.64,14.4-6.97,24.4-6.97,9.33,0,16.83,1.74,22.5,5.22,5.67,3.48,9.77,8.06,12.3,13.74.93,2.19,1.63,4.77,2.1,7.74Z"/>
      <g>
        <path class="cls-1" d="M89.99,34.15h0c-.81.61-2.13.65-2.93.09l-10.68-7.45c-1.82-1.27-1.81-3.42.03-4.8l10.21-7.66c.99-.74,2.59-.79,3.57-.11h0c.84.58.83,1.57-.02,2.2l-10.23,7.67c-.18.13-.18.34,0,.46l10.06,7.02c.98.68.97,1.84-.02,2.58Z"/>
        <path class="cls-1" d="M89.05,42.47h0c.8.56,2.12.52,2.93-.09l10.8-8.09c1.84-1.38,1.86-3.53.04-4.8l-10.1-7.06c-.98-.68-2.58-.64-3.57.1h0c-.84.63-.85,1.62-.02,2.2l10.12,7.07c.17.12.17.33,0,.46l-10.17,7.62c-.99.74-1,1.9-.02,2.58Z"/>
      </g>
      <g>
        <path class="cls-2" d="M109,167.68v-9.81h-3.78v-.69h8.33v.69h-3.78v9.81h-.76Z"/>
        <path class="cls-2" d="M117.55,167.74c-.79,0-1.49-.17-2.09-.51-.61-.34-1.08-.81-1.43-1.41-.34-.6-.52-1.29-.52-2.06s.16-1.47.49-2.06c.32-.59.77-1.06,1.34-1.4.57-.34,1.21-.51,1.92-.51s1.35.17,1.91.5c.56.33,1.01.79,1.33,1.39.32.59.49,1.28.49,2.06,0,.03,0,.06,0,.1,0,.04,0,.07,0,.11h-6.92v-.58h6.51l-.3.28c0-.61-.12-1.16-.38-1.64-.26-.48-.62-.86-1.07-1.14s-.97-.41-1.56-.41-1.1.14-1.55.41c-.46.27-.81.65-1.07,1.14-.26.49-.39,1.04-.39,1.66v.14c0,.64.14,1.21.43,1.7s.68.88,1.18,1.16c.5.27,1.07.41,1.71.41.5,0,.97-.09,1.4-.27.43-.18.8-.46,1.1-.83l.43.5c-.34.42-.77.74-1.28.95-.52.22-1.07.32-1.67.32Z"/>
        <path class="cls-2" d="M126.43,167.74c-.76,0-1.44-.17-2.03-.51-.6-.34-1.07-.81-1.41-1.41s-.52-1.29-.52-2.06.17-1.47.52-2.07.81-1.07,1.41-1.4c.59-.33,1.27-.5,2.03-.5.63,0,1.2.12,1.72.36.51.24.93.6,1.25,1.08l-.55.41c-.28-.4-.63-.69-1.05-.89-.42-.19-.88-.28-1.37-.28-.61,0-1.16.14-1.64.41-.49.28-.87.66-1.14,1.16-.28.5-.41,1.07-.41,1.73s.14,1.24.41,1.73c.27.5.65.88,1.14,1.16s1.03.41,1.64.41c.49,0,.95-.09,1.37-.28s.77-.48,1.05-.89l.55.41c-.32.48-.74.84-1.25,1.08-.52.24-1.09.36-1.72.36Z"/>
        <path class="cls-2" d="M135.34,159.79c.64,0,1.2.12,1.67.37.48.25.85.61,1.11,1.11s.4,1.11.4,1.84v4.58h-.75v-4.52c0-.88-.22-1.55-.67-2.01-.45-.46-1.07-.69-1.87-.69-.61,0-1.14.12-1.59.38s-.79.6-1.03,1.05c-.24.45-.35.99-.35,1.62v4.17h-.75v-11.13h.75v5.48l-.13-.24c.24-.62.63-1.11,1.18-1.46s1.22-.53,2.03-.53Z"/>
        <path class="cls-2" d="M145.44,159.79c.64,0,1.2.12,1.67.37s.85.61,1.11,1.11c.27.5.4,1.11.4,1.84v4.58h-.75v-4.52c0-.88-.22-1.55-.67-2.01s-1.07-.69-1.87-.69c-.61,0-1.14.12-1.59.38s-.79.6-1.03,1.05c-.24.45-.35.99-.35,1.62v4.17h-.75v-7.83h.72v2.18l-.1-.24c.24-.62.63-1.11,1.18-1.46s1.22-.53,2.03-.53Z"/>
        <path class="cls-2" d="M154.77,167.74c-.75,0-1.42-.17-2-.51-.58-.34-1.05-.81-1.39-1.41-.35-.6-.52-1.29-.52-2.06s.17-1.47.52-2.06c.34-.59.81-1.06,1.39-1.4s1.25-.51,2-.51,1.42.17,2.01.51,1.05.81,1.39,1.4c.34.6.51,1.28.51,2.06s-.17,1.46-.51,2.06-.8,1.07-1.39,1.41c-.59.34-1.26.51-2.01.51ZM154.77,167.07c.6,0,1.14-.14,1.62-.41.48-.27.86-.66,1.12-1.16.27-.5.41-1.07.41-1.73s-.13-1.24-.41-1.73c-.27-.5-.64-.88-1.12-1.16-.48-.27-1.02-.41-1.62-.41s-1.14.14-1.61.41c-.47.28-.85.66-1.12,1.16-.27.5-.41,1.07-.41,1.73s.14,1.23.41,1.73c.28.5.65.89,1.12,1.16.48.27,1.01.41,1.61.41Z"/>
        <path class="cls-2" d="M161.01,167.68v-11.13h.75v11.13h-.75Z"/>
        <path class="cls-2" d="M167.98,167.74c-.75,0-1.42-.17-2-.51-.58-.34-1.05-.81-1.39-1.41-.35-.6-.52-1.29-.52-2.06s.17-1.47.52-2.06c.34-.59.81-1.06,1.39-1.4s1.25-.51,2-.51,1.42.17,2.01.51,1.05.81,1.39,1.4c.34.6.51,1.28.51,2.06s-.17,1.46-.51,2.06-.8,1.07-1.39,1.41c-.59.34-1.26.51-2.01.51ZM167.98,167.07c.6,0,1.14-.14,1.62-.41.48-.27.86-.66,1.12-1.16.27-.5.41-1.07.41-1.73s-.13-1.24-.41-1.73c-.27-.5-.64-.88-1.12-1.16-.48-.27-1.02-.41-1.62-.41s-1.14.14-1.61.41c-.47.28-.85.66-1.12,1.16-.27.5-.41,1.07-.41,1.73s.14,1.23.41,1.73c.28.5.65.89,1.12,1.16.48.27,1.01.41,1.61.41Z"/>
        <path class="cls-2" d="M177.27,167.4c-.74,0-1.4-.16-1.99-.49-.58-.32-1.05-.77-1.39-1.35-.35-.57-.52-1.23-.52-1.97s.17-1.41.52-1.98c.34-.57.81-1.01,1.39-1.33.58-.32,1.25-.48,1.99-.48s1.35.15,1.91.46c.56.31,1.01.74,1.34,1.31s.5,1.24.5,2.03-.17,1.46-.5,2.03c-.33.57-.78,1.01-1.34,1.32-.57.31-1.2.46-1.91.46ZM177.48,170.65c-.71,0-1.38-.11-2.02-.33-.64-.22-1.16-.52-1.56-.92l.41-.57c.39.36.86.64,1.4.84.54.2,1.13.3,1.76.3,1.05,0,1.82-.25,2.32-.73.5-.49.74-1.26.74-2.31v-2.17l.15-1.17-.12-1.17v-2.56h.72v6.99c0,1.31-.32,2.27-.95,2.89-.63.62-1.58.92-2.84.92ZM177.33,166.72c.63,0,1.18-.13,1.67-.4.48-.27.86-.63,1.13-1.11.28-.48.41-1.02.41-1.63s-.14-1.16-.41-1.63c-.27-.47-.65-.83-1.13-1.1-.48-.26-1.04-.39-1.67-.39s-1.16.13-1.64.39c-.49.26-.87.63-1.14,1.1-.27.47-.41,1.02-.41,1.63s.14,1.15.41,1.63c.28.48.66.84,1.14,1.11.48.27,1.03.4,1.64.4Z"/>
        <path class="cls-2" d="M184.27,170.65c-.36,0-.7-.06-1.01-.18s-.58-.29-.8-.52l.38-.57c.2.21.42.37.65.47.24.1.5.15.8.15.36,0,.68-.1.95-.3.27-.2.53-.56.77-1.09l.54-1.2.1-.13,3.32-7.41h.76l-4.02,8.9c-.21.48-.44.86-.68,1.13-.25.28-.51.47-.8.59s-.61.18-.96.18ZM186.54,167.88l-3.63-8.02h.79l3.3,7.37-.46.66Z"/>
        <path class="cls-2" d="M197.76,167.68l-2.97-7.83h.72l2.76,7.41h-.31l2.83-7.41h.64l2.82,7.41h-.33l2.8-7.41h.69l-2.97,7.83h-.7l-2.76-7.11h.24l-2.78,7.11h-.69Z"/>
        <path class="cls-2" d="M209.53,157.95c-.17,0-.31-.06-.43-.18s-.18-.26-.18-.42c0-.17.06-.31.18-.44s.26-.18.43-.18c.18,0,.33.06.44.17.12.11.17.26.17.43s-.06.31-.17.44-.26.18-.44.18ZM209.16,167.68v-7.83h.75v7.83h-.75Z"/>
        <path class="cls-2" d="M211.78,160.5v-.65h4.68v.65h-4.68ZM215.35,167.74c-.69,0-1.22-.19-1.58-.57-.37-.38-.55-.9-.55-1.56v-7.47h.75v7.4c0,.5.12.89.38,1.15.25.27.61.41,1.08.41s.89-.15,1.21-.44l.31.52c-.2.19-.44.33-.73.42-.28.09-.58.14-.88.14Z"/>
        <path class="cls-2" d="M222.87,159.79c.64,0,1.2.12,1.67.37.47.25.84.61,1.11,1.11s.4,1.11.4,1.84v4.58h-.75v-4.52c0-.88-.22-1.55-.67-2.01-.45-.46-1.07-.69-1.87-.69-.61,0-1.14.12-1.59.38s-.79.6-1.03,1.05-.35.99-.35,1.62v4.17h-.75v-11.13h.75v5.48l-.13-.24c.24-.62.63-1.11,1.18-1.46s1.23-.53,2.03-.53Z"/>
        <path class="cls-2" d="M233.23,167.68v-10.5h.76v10.5h-.76Z"/>
        <path class="cls-2" d="M241.24,159.79c.64,0,1.2.12,1.67.37.47.25.84.61,1.11,1.11s.4,1.11.4,1.84v4.58h-.75v-4.52c0-.88-.22-1.55-.67-2.01-.45-.46-1.07-.69-1.87-.69-.61,0-1.14.12-1.59.38s-.79.6-1.03,1.05-.35.99-.35,1.62v4.17h-.75v-7.83h.72v2.18l-.1-.24c.24-.62.63-1.11,1.18-1.46s1.23-.53,2.03-.53Z"/>
        <path class="cls-2" d="M246.22,160.5v-.65h4.68v.65h-4.68ZM249.79,167.74c-.69,0-1.22-.19-1.58-.57-.37-.38-.55-.9-.55-1.56v-7.47h.75v7.4c0,.5.12.89.38,1.15.25.27.61.41,1.08.41s.89-.15,1.21-.44l.31.52c-.2.19-.44.33-.73.42-.28.09-.58.14-.88.14Z"/>
        <path class="cls-2" d="M256.37,167.74c-.79,0-1.49-.17-2.09-.51-.61-.34-1.08-.81-1.42-1.41-.35-.6-.52-1.29-.52-2.06s.16-1.47.49-2.06c.32-.59.77-1.06,1.34-1.4.57-.34,1.21-.51,1.92-.51s1.35.17,1.91.5c.56.33,1.01.79,1.33,1.39.33.59.49,1.28.49,2.06,0,.03,0,.06,0,.1,0,.04,0,.07,0,.11h-6.92v-.58h6.51l-.3.28c0-.61-.12-1.16-.38-1.64-.26-.48-.62-.86-1.07-1.14s-.97-.41-1.56-.41-1.1.14-1.55.41-.81.65-1.07,1.14c-.26.49-.39,1.04-.39,1.66v.14c0,.64.14,1.21.43,1.7s.68.88,1.18,1.16,1.07.41,1.71.41c.5,0,.97-.09,1.4-.27.43-.18.8-.46,1.1-.83l.43.5c-.34.42-.77.74-1.28.95-.51.22-1.07.32-1.67.32Z"/>
        <path class="cls-2" d="M265.97,159.79c.64,0,1.2.12,1.67.37.47.25.84.61,1.11,1.11s.4,1.11.4,1.84v4.58h-.75v-4.52c0-.88-.22-1.55-.67-2.01-.45-.46-1.07-.69-1.87-.69-.61,0-1.14.12-1.59.38s-.79.6-1.03,1.05-.35.99-.35,1.62v4.17h-.75v-7.83h.72v2.18l-.1-.24c.24-.62.63-1.11,1.18-1.46s1.23-.53,2.03-.53Z"/>
        <path class="cls-2" d="M270.95,160.5v-.65h4.68v.65h-4.68ZM274.52,167.74c-.69,0-1.22-.19-1.58-.57-.37-.38-.55-.9-.55-1.56v-7.47h.75v7.4c0,.5.12.89.38,1.15.25.27.61.41,1.08.41s.89-.15,1.21-.44l.31.52c-.2.19-.44.33-.73.42-.28.09-.58.14-.88.14Z"/>
        <path class="cls-2" d="M278.59,157.95c-.17,0-.31-.06-.43-.18s-.18-.26-.18-.42c0-.17.06-.31.18-.44s.26-.18.43-.18c.18,0,.33.06.44.17.12.11.17.26.17.43s-.06.31-.17.44-.26.18-.44.18ZM278.21,167.68v-7.83h.75v7.83h-.75Z"/>
        <path class="cls-2" d="M285.19,167.74c-.75,0-1.42-.17-2-.51-.58-.34-1.05-.81-1.39-1.41-.35-.6-.52-1.29-.52-2.06s.17-1.47.52-2.06c.34-.59.81-1.06,1.39-1.4s1.25-.51,2-.51,1.42.17,2.01.51,1.05.81,1.39,1.4c.34.6.51,1.28.51,2.06s-.17,1.46-.51,2.06-.8,1.07-1.39,1.41c-.59.34-1.26.51-2.01.51ZM285.19,167.07c.6,0,1.14-.14,1.62-.41.48-.27.86-.66,1.12-1.16.27-.5.41-1.07.41-1.73s-.13-1.24-.41-1.73c-.27-.5-.64-.88-1.12-1.16-.48-.27-1.02-.41-1.62-.41s-1.14.14-1.61.41c-.47.28-.85.66-1.12,1.16-.27.5-.41,1.07-.41,1.73s.14,1.23.41,1.73c.28.5.65.89,1.12,1.16.48.27,1.01.41,1.61.41Z"/>
        <path class="cls-2" d="M295.25,159.79c.64,0,1.2.12,1.67.37.47.25.84.61,1.11,1.11s.4,1.11.4,1.84v4.58h-.75v-4.52c0-.88-.22-1.55-.67-2.01-.45-.46-1.07-.69-1.87-.69-.61,0-1.14.12-1.59.38s-.79.6-1.03,1.05-.35.99-.35,1.62v4.17h-.75v-7.83h.72v2.18l-.1-.24c.24-.62.63-1.11,1.18-1.46s1.23-.53,2.03-.53Z"/>
        <path class="cls-2" d="M301.43,167.74c-.17,0-.32-.06-.44-.19s-.19-.28-.19-.46.06-.33.19-.45c.12-.12.27-.18.44-.18s.32.06.44.18c.12.12.19.27.19.45s-.06.33-.19.46-.27.19-.44.19Z"/>
      </g>
    </g>
  </g>
</svg>